<mxfile host="app.diagrams.net" modified="2024-06-13T16:27:49.531Z" agent="Mozilla/5.0 (Windows NT 10.0; Win64; x64) AppleWebKit/537.36 (KHTML, like Gecko) Chrome/125.0.0.0 Safari/537.36" etag="uFkmpQ6p2O5nRZDf3kNw" version="24.5.4" type="device">
  <diagram name="Page-1" id="S8YTOZrHcixdIfj45pyo">
    <mxGraphModel dx="3529" dy="1744" grid="1" gridSize="10" guides="1" tooltips="1" connect="1" arrows="1" fold="1" page="1" pageScale="1" pageWidth="850" pageHeight="1100" math="0" shadow="0">
      <root>
        <mxCell id="0" />
        <mxCell id="1" parent="0" />
        <mxCell id="PVSmNiR2cH8IBzTru6Gr-1" value="ElevatorCar" style="swimlane;fontStyle=1;align=center;verticalAlign=top;childLayout=stackLayout;horizontal=1;startSize=26;horizontalStack=0;resizeParent=1;resizeParentMax=0;resizeLast=0;collapsible=1;marginBottom=0;whiteSpace=wrap;html=1;" parent="1" vertex="1">
          <mxGeometry x="210" y="220" width="210" height="218" as="geometry" />
        </mxCell>
        <mxCell id="PVSmNiR2cH8IBzTru6Gr-2" value="&lt;div&gt;+ id: int&lt;/div&gt;+ display : Display&lt;div&gt;+ currentFloor : int&lt;/div&gt;&lt;div&gt;+ direction : Direction&lt;/div&gt;&lt;div&gt;+ status : Status&lt;/div&gt;&lt;div&gt;+ button : InternalButton&lt;/div&gt;&lt;div&gt;+ door : Door&lt;/div&gt;" style="text;strokeColor=none;fillColor=none;align=left;verticalAlign=top;spacingLeft=4;spacingRight=4;overflow=hidden;rotatable=0;points=[[0,0.5],[1,0.5]];portConstraint=eastwest;whiteSpace=wrap;html=1;" parent="PVSmNiR2cH8IBzTru6Gr-1" vertex="1">
          <mxGeometry y="26" width="210" height="124" as="geometry" />
        </mxCell>
        <mxCell id="PVSmNiR2cH8IBzTru6Gr-3" value="" style="line;strokeWidth=1;fillColor=none;align=left;verticalAlign=middle;spacingTop=-1;spacingLeft=3;spacingRight=3;rotatable=0;labelPosition=right;points=[];portConstraint=eastwest;strokeColor=inherit;" parent="PVSmNiR2cH8IBzTru6Gr-1" vertex="1">
          <mxGeometry y="150" width="210" height="8" as="geometry" />
        </mxCell>
        <mxCell id="PVSmNiR2cH8IBzTru6Gr-4" value="+ method(type): type" style="text;strokeColor=none;fillColor=none;align=left;verticalAlign=top;spacingLeft=4;spacingRight=4;overflow=hidden;rotatable=0;points=[[0,0.5],[1,0.5]];portConstraint=eastwest;whiteSpace=wrap;html=1;" parent="PVSmNiR2cH8IBzTru6Gr-1" vertex="1">
          <mxGeometry y="158" width="210" height="60" as="geometry" />
        </mxCell>
        <mxCell id="PVSmNiR2cH8IBzTru6Gr-5" value="Display" style="swimlane;fontStyle=1;align=center;verticalAlign=top;childLayout=stackLayout;horizontal=1;startSize=26;horizontalStack=0;resizeParent=1;resizeParentMax=0;resizeLast=0;collapsible=1;marginBottom=0;whiteSpace=wrap;html=1;" parent="1" vertex="1">
          <mxGeometry x="215" y="-70" width="210" height="158" as="geometry" />
        </mxCell>
        <mxCell id="PVSmNiR2cH8IBzTru6Gr-6" value="+ floor : int&lt;div&gt;+ direction : Direction&lt;/div&gt;" style="text;strokeColor=none;fillColor=none;align=left;verticalAlign=top;spacingLeft=4;spacingRight=4;overflow=hidden;rotatable=0;points=[[0,0.5],[1,0.5]];portConstraint=eastwest;whiteSpace=wrap;html=1;" parent="PVSmNiR2cH8IBzTru6Gr-5" vertex="1">
          <mxGeometry y="26" width="210" height="64" as="geometry" />
        </mxCell>
        <mxCell id="PVSmNiR2cH8IBzTru6Gr-7" value="" style="line;strokeWidth=1;fillColor=none;align=left;verticalAlign=middle;spacingTop=-1;spacingLeft=3;spacingRight=3;rotatable=0;labelPosition=right;points=[];portConstraint=eastwest;strokeColor=inherit;" parent="PVSmNiR2cH8IBzTru6Gr-5" vertex="1">
          <mxGeometry y="90" width="210" height="8" as="geometry" />
        </mxCell>
        <mxCell id="PVSmNiR2cH8IBzTru6Gr-8" value="+ method(type): type" style="text;strokeColor=none;fillColor=none;align=left;verticalAlign=top;spacingLeft=4;spacingRight=4;overflow=hidden;rotatable=0;points=[[0,0.5],[1,0.5]];portConstraint=eastwest;whiteSpace=wrap;html=1;" parent="PVSmNiR2cH8IBzTru6Gr-5" vertex="1">
          <mxGeometry y="98" width="210" height="60" as="geometry" />
        </mxCell>
        <mxCell id="PVSmNiR2cH8IBzTru6Gr-9" value="enum Direction {&lt;div&gt;&lt;span style=&quot;background-color: initial;&quot;&gt;&amp;nbsp; &amp;nbsp; &amp;nbsp;UP,&lt;/span&gt;&lt;/div&gt;&lt;div&gt;&lt;span style=&quot;background-color: initial;&quot;&gt;&amp;nbsp; &amp;nbsp; &amp;nbsp;DOWN;&lt;/span&gt;&lt;div&gt;}&lt;/div&gt;&lt;/div&gt;" style="html=1;whiteSpace=wrap;align=left;" parent="1" vertex="1">
          <mxGeometry x="550" y="61" width="110" height="70" as="geometry" />
        </mxCell>
        <mxCell id="PVSmNiR2cH8IBzTru6Gr-10" value="enum Status {&lt;div&gt;&amp;nbsp; &amp;nbsp;IDLE,&lt;/div&gt;&lt;div&gt;&amp;nbsp; &amp;nbsp;MOVING;&lt;/div&gt;&lt;div&gt;}&lt;/div&gt;" style="html=1;whiteSpace=wrap;align=left;" parent="1" vertex="1">
          <mxGeometry x="690" y="61" width="110" height="70" as="geometry" />
        </mxCell>
        <mxCell id="PVSmNiR2cH8IBzTru6Gr-11" value="InternalButton" style="swimlane;fontStyle=1;align=center;verticalAlign=top;childLayout=stackLayout;horizontal=1;startSize=26;horizontalStack=0;resizeParent=1;resizeParentMax=0;resizeLast=0;collapsible=1;marginBottom=0;whiteSpace=wrap;html=1;" parent="1" vertex="1">
          <mxGeometry x="-140" y="-10" width="210" height="158" as="geometry" />
        </mxCell>
        <mxCell id="PVSmNiR2cH8IBzTru6Gr-12" value="+ obj : InternalButtonDispatcher" style="text;strokeColor=none;fillColor=none;align=left;verticalAlign=top;spacingLeft=4;spacingRight=4;overflow=hidden;rotatable=0;points=[[0,0.5],[1,0.5]];portConstraint=eastwest;whiteSpace=wrap;html=1;" parent="PVSmNiR2cH8IBzTru6Gr-11" vertex="1">
          <mxGeometry y="26" width="210" height="64" as="geometry" />
        </mxCell>
        <mxCell id="PVSmNiR2cH8IBzTru6Gr-13" value="" style="line;strokeWidth=1;fillColor=none;align=left;verticalAlign=middle;spacingTop=-1;spacingLeft=3;spacingRight=3;rotatable=0;labelPosition=right;points=[];portConstraint=eastwest;strokeColor=inherit;" parent="PVSmNiR2cH8IBzTru6Gr-11" vertex="1">
          <mxGeometry y="90" width="210" height="8" as="geometry" />
        </mxCell>
        <mxCell id="PVSmNiR2cH8IBzTru6Gr-14" value="+ pressButton(int button)" style="text;strokeColor=none;fillColor=none;align=left;verticalAlign=top;spacingLeft=4;spacingRight=4;overflow=hidden;rotatable=0;points=[[0,0.5],[1,0.5]];portConstraint=eastwest;whiteSpace=wrap;html=1;" parent="PVSmNiR2cH8IBzTru6Gr-11" vertex="1">
          <mxGeometry y="98" width="210" height="60" as="geometry" />
        </mxCell>
        <mxCell id="PVSmNiR2cH8IBzTru6Gr-15" value="" style="endArrow=diamondThin;endFill=1;endSize=24;html=1;rounded=0;exitX=0.092;exitY=-0.022;exitDx=0;exitDy=0;exitPerimeter=0;entryX=1.003;entryY=0.717;entryDx=0;entryDy=0;entryPerimeter=0;" parent="1" source="PVSmNiR2cH8IBzTru6Gr-1" target="PVSmNiR2cH8IBzTru6Gr-14" edge="1">
          <mxGeometry width="160" relative="1" as="geometry">
            <mxPoint x="30" y="70" as="sourcePoint" />
            <mxPoint x="190" y="70" as="targetPoint" />
            <Array as="points">
              <mxPoint x="230" y="131" />
            </Array>
          </mxGeometry>
        </mxCell>
        <mxCell id="PVSmNiR2cH8IBzTru6Gr-16" value="" style="endArrow=diamondThin;endFill=1;endSize=24;html=1;rounded=0;exitX=0.092;exitY=-0.022;exitDx=0;exitDy=0;exitPerimeter=0;" parent="1" edge="1">
          <mxGeometry width="160" relative="1" as="geometry">
            <mxPoint x="368" y="220" as="sourcePoint" />
            <mxPoint x="369" y="90" as="targetPoint" />
            <Array as="points">
              <mxPoint x="369" y="136" />
            </Array>
          </mxGeometry>
        </mxCell>
        <mxCell id="PVSmNiR2cH8IBzTru6Gr-17" value="ElevatorController" style="swimlane;fontStyle=1;align=center;verticalAlign=top;childLayout=stackLayout;horizontal=1;startSize=26;horizontalStack=0;resizeParent=1;resizeParentMax=0;resizeLast=0;collapsible=1;marginBottom=0;whiteSpace=wrap;html=1;" parent="1" vertex="1">
          <mxGeometry x="-250" y="240" width="300" height="158" as="geometry" />
        </mxCell>
        <mxCell id="PVSmNiR2cH8IBzTru6Gr-18" value="+ obj : Elevator" style="text;strokeColor=none;fillColor=none;align=left;verticalAlign=top;spacingLeft=4;spacingRight=4;overflow=hidden;rotatable=0;points=[[0,0.5],[1,0.5]];portConstraint=eastwest;whiteSpace=wrap;html=1;" parent="PVSmNiR2cH8IBzTru6Gr-17" vertex="1">
          <mxGeometry y="26" width="300" height="64" as="geometry" />
        </mxCell>
        <mxCell id="PVSmNiR2cH8IBzTru6Gr-19" value="" style="line;strokeWidth=1;fillColor=none;align=left;verticalAlign=middle;spacingTop=-1;spacingLeft=3;spacingRight=3;rotatable=0;labelPosition=right;points=[];portConstraint=eastwest;strokeColor=inherit;" parent="PVSmNiR2cH8IBzTru6Gr-17" vertex="1">
          <mxGeometry y="90" width="300" height="8" as="geometry" />
        </mxCell>
        <mxCell id="PVSmNiR2cH8IBzTru6Gr-20" value="+ acceptNewRequest(int floor, Direction direction) :&lt;div&gt;+ controlElevatorCar() :&lt;/div&gt;" style="text;strokeColor=none;fillColor=none;align=left;verticalAlign=top;spacingLeft=4;spacingRight=4;overflow=hidden;rotatable=0;points=[[0,0.5],[1,0.5]];portConstraint=eastwest;whiteSpace=wrap;html=1;" parent="PVSmNiR2cH8IBzTru6Gr-17" vertex="1">
          <mxGeometry y="98" width="300" height="60" as="geometry" />
        </mxCell>
        <mxCell id="PVSmNiR2cH8IBzTru6Gr-21" value="" style="endArrow=diamondThin;endFill=1;endSize=24;html=1;rounded=0;exitX=1.016;exitY=0.751;exitDx=0;exitDy=0;exitPerimeter=0;entryX=0.001;entryY=0.583;entryDx=0;entryDy=0;entryPerimeter=0;" parent="1" source="PVSmNiR2cH8IBzTru6Gr-18" target="PVSmNiR2cH8IBzTru6Gr-2" edge="1">
          <mxGeometry width="160" relative="1" as="geometry">
            <mxPoint x="70" y="360" as="sourcePoint" />
            <mxPoint x="71" y="230" as="targetPoint" />
            <Array as="points" />
          </mxGeometry>
        </mxCell>
        <mxCell id="PVSmNiR2cH8IBzTru6Gr-22" value="InternalButtonDispatcher" style="swimlane;fontStyle=1;align=center;verticalAlign=top;childLayout=stackLayout;horizontal=1;startSize=26;horizontalStack=0;resizeParent=1;resizeParentMax=0;resizeLast=0;collapsible=1;marginBottom=0;whiteSpace=wrap;html=1;" parent="1" vertex="1">
          <mxGeometry x="-660" y="240" width="300" height="158" as="geometry" />
        </mxCell>
        <mxCell id="PVSmNiR2cH8IBzTru6Gr-23" value="+ list : List&amp;lt;Elevator&amp;gt;" style="text;strokeColor=none;fillColor=none;align=left;verticalAlign=top;spacingLeft=4;spacingRight=4;overflow=hidden;rotatable=0;points=[[0,0.5],[1,0.5]];portConstraint=eastwest;whiteSpace=wrap;html=1;" parent="PVSmNiR2cH8IBzTru6Gr-22" vertex="1">
          <mxGeometry y="26" width="300" height="64" as="geometry" />
        </mxCell>
        <mxCell id="PVSmNiR2cH8IBzTru6Gr-24" value="" style="line;strokeWidth=1;fillColor=none;align=left;verticalAlign=middle;spacingTop=-1;spacingLeft=3;spacingRight=3;rotatable=0;labelPosition=right;points=[];portConstraint=eastwest;strokeColor=inherit;" parent="PVSmNiR2cH8IBzTru6Gr-22" vertex="1">
          <mxGeometry y="90" width="300" height="8" as="geometry" />
        </mxCell>
        <mxCell id="PVSmNiR2cH8IBzTru6Gr-25" value="+ submitRequest(int id)" style="text;strokeColor=none;fillColor=none;align=left;verticalAlign=top;spacingLeft=4;spacingRight=4;overflow=hidden;rotatable=0;points=[[0,0.5],[1,0.5]];portConstraint=eastwest;whiteSpace=wrap;html=1;" parent="PVSmNiR2cH8IBzTru6Gr-22" vertex="1">
          <mxGeometry y="98" width="300" height="60" as="geometry" />
        </mxCell>
        <mxCell id="PVSmNiR2cH8IBzTru6Gr-26" value="ExternalButtonDispatcher" style="swimlane;fontStyle=1;align=center;verticalAlign=top;childLayout=stackLayout;horizontal=1;startSize=26;horizontalStack=0;resizeParent=1;resizeParentMax=0;resizeLast=0;collapsible=1;marginBottom=0;whiteSpace=wrap;html=1;" parent="1" vertex="1">
          <mxGeometry x="-1040" y="300" width="300" height="154" as="geometry" />
        </mxCell>
        <mxCell id="PVSmNiR2cH8IBzTru6Gr-27" value="+ obj : List&amp;lt;Elevator&amp;gt;" style="text;strokeColor=none;fillColor=none;align=left;verticalAlign=top;spacingLeft=4;spacingRight=4;overflow=hidden;rotatable=0;points=[[0,0.5],[1,0.5]];portConstraint=eastwest;whiteSpace=wrap;html=1;" parent="PVSmNiR2cH8IBzTru6Gr-26" vertex="1">
          <mxGeometry y="26" width="300" height="60" as="geometry" />
        </mxCell>
        <mxCell id="PVSmNiR2cH8IBzTru6Gr-28" value="" style="line;strokeWidth=1;fillColor=none;align=left;verticalAlign=middle;spacingTop=-1;spacingLeft=3;spacingRight=3;rotatable=0;labelPosition=right;points=[];portConstraint=eastwest;strokeColor=inherit;" parent="PVSmNiR2cH8IBzTru6Gr-26" vertex="1">
          <mxGeometry y="86" width="300" height="8" as="geometry" />
        </mxCell>
        <mxCell id="PVSmNiR2cH8IBzTru6Gr-29" value="+ submit(int floor, Direction direction)" style="text;strokeColor=none;fillColor=none;align=left;verticalAlign=top;spacingLeft=4;spacingRight=4;overflow=hidden;rotatable=0;points=[[0,0.5],[1,0.5]];portConstraint=eastwest;whiteSpace=wrap;html=1;" parent="PVSmNiR2cH8IBzTru6Gr-26" vertex="1">
          <mxGeometry y="94" width="300" height="60" as="geometry" />
        </mxCell>
        <mxCell id="PVSmNiR2cH8IBzTru6Gr-30" value="" style="endArrow=diamondThin;endFill=1;endSize=24;html=1;rounded=0;exitX=-0.012;exitY=0.076;exitDx=0;exitDy=0;exitPerimeter=0;entryX=0.912;entryY=-0.016;entryDx=0;entryDy=0;entryPerimeter=0;" parent="1" source="PVSmNiR2cH8IBzTru6Gr-14" target="PVSmNiR2cH8IBzTru6Gr-22" edge="1">
          <mxGeometry width="160" relative="1" as="geometry">
            <mxPoint x="-346" y="172" as="sourcePoint" />
            <mxPoint x="-504" y="88" as="targetPoint" />
            <Array as="points">
              <mxPoint x="-386" y="93" />
            </Array>
          </mxGeometry>
        </mxCell>
        <mxCell id="PVSmNiR2cH8IBzTru6Gr-31" value="ExternalButton" style="swimlane;fontStyle=1;align=center;verticalAlign=top;childLayout=stackLayout;horizontal=1;startSize=26;horizontalStack=0;resizeParent=1;resizeParentMax=0;resizeLast=0;collapsible=1;marginBottom=0;whiteSpace=wrap;html=1;" parent="1" vertex="1">
          <mxGeometry x="-995" y="10" width="255" height="158" as="geometry" />
        </mxCell>
        <mxCell id="PVSmNiR2cH8IBzTru6Gr-32" value="+ obj : ExternalButtonDispatcher" style="text;strokeColor=none;fillColor=none;align=left;verticalAlign=top;spacingLeft=4;spacingRight=4;overflow=hidden;rotatable=0;points=[[0,0.5],[1,0.5]];portConstraint=eastwest;whiteSpace=wrap;html=1;" parent="PVSmNiR2cH8IBzTru6Gr-31" vertex="1">
          <mxGeometry y="26" width="255" height="64" as="geometry" />
        </mxCell>
        <mxCell id="PVSmNiR2cH8IBzTru6Gr-33" value="" style="line;strokeWidth=1;fillColor=none;align=left;verticalAlign=middle;spacingTop=-1;spacingLeft=3;spacingRight=3;rotatable=0;labelPosition=right;points=[];portConstraint=eastwest;strokeColor=inherit;" parent="PVSmNiR2cH8IBzTru6Gr-31" vertex="1">
          <mxGeometry y="90" width="255" height="8" as="geometry" />
        </mxCell>
        <mxCell id="PVSmNiR2cH8IBzTru6Gr-34" value="+ pressButton(int floor, Direction direction)" style="text;strokeColor=none;fillColor=none;align=left;verticalAlign=top;spacingLeft=4;spacingRight=4;overflow=hidden;rotatable=0;points=[[0,0.5],[1,0.5]];portConstraint=eastwest;whiteSpace=wrap;html=1;" parent="PVSmNiR2cH8IBzTru6Gr-31" vertex="1">
          <mxGeometry y="98" width="255" height="60" as="geometry" />
        </mxCell>
        <mxCell id="PVSmNiR2cH8IBzTru6Gr-35" value="" style="endArrow=diamondThin;endFill=1;endSize=24;html=1;rounded=0;exitX=1.017;exitY=0.795;exitDx=0;exitDy=0;exitPerimeter=0;entryX=0.009;entryY=0.718;entryDx=0;entryDy=0;entryPerimeter=0;" parent="1" source="PVSmNiR2cH8IBzTru6Gr-23" target="PVSmNiR2cH8IBzTru6Gr-18" edge="1">
          <mxGeometry width="160" relative="1" as="geometry">
            <mxPoint x="-390" y="310" as="sourcePoint" />
            <mxPoint x="-235" y="314" as="targetPoint" />
            <Array as="points" />
          </mxGeometry>
        </mxCell>
        <mxCell id="PVSmNiR2cH8IBzTru6Gr-36" value="OddEvenDispatcher" style="swimlane;fontStyle=1;align=center;verticalAlign=top;childLayout=stackLayout;horizontal=1;startSize=26;horizontalStack=0;resizeParent=1;resizeParentMax=0;resizeLast=0;collapsible=1;marginBottom=0;whiteSpace=wrap;html=1;" parent="1" vertex="1">
          <mxGeometry x="-1110" y="580" width="210" height="158" as="geometry" />
        </mxCell>
        <mxCell id="PVSmNiR2cH8IBzTru6Gr-37" value="+" style="text;strokeColor=none;fillColor=none;align=left;verticalAlign=top;spacingLeft=4;spacingRight=4;overflow=hidden;rotatable=0;points=[[0,0.5],[1,0.5]];portConstraint=eastwest;whiteSpace=wrap;html=1;" parent="PVSmNiR2cH8IBzTru6Gr-36" vertex="1">
          <mxGeometry y="26" width="210" height="64" as="geometry" />
        </mxCell>
        <mxCell id="PVSmNiR2cH8IBzTru6Gr-38" value="" style="line;strokeWidth=1;fillColor=none;align=left;verticalAlign=middle;spacingTop=-1;spacingLeft=3;spacingRight=3;rotatable=0;labelPosition=right;points=[];portConstraint=eastwest;strokeColor=inherit;" parent="PVSmNiR2cH8IBzTru6Gr-36" vertex="1">
          <mxGeometry y="90" width="210" height="8" as="geometry" />
        </mxCell>
        <mxCell id="PVSmNiR2cH8IBzTru6Gr-39" value="+" style="text;strokeColor=none;fillColor=none;align=left;verticalAlign=top;spacingLeft=4;spacingRight=4;overflow=hidden;rotatable=0;points=[[0,0.5],[1,0.5]];portConstraint=eastwest;whiteSpace=wrap;html=1;" parent="PVSmNiR2cH8IBzTru6Gr-36" vertex="1">
          <mxGeometry y="98" width="210" height="60" as="geometry" />
        </mxCell>
        <mxCell id="PVSmNiR2cH8IBzTru6Gr-40" value="FixedFloorDispatcher" style="swimlane;fontStyle=1;align=center;verticalAlign=top;childLayout=stackLayout;horizontal=1;startSize=26;horizontalStack=0;resizeParent=1;resizeParentMax=0;resizeLast=0;collapsible=1;marginBottom=0;whiteSpace=wrap;html=1;" parent="1" vertex="1">
          <mxGeometry x="-800" y="580" width="210" height="158" as="geometry" />
        </mxCell>
        <mxCell id="PVSmNiR2cH8IBzTru6Gr-41" value="+" style="text;strokeColor=none;fillColor=none;align=left;verticalAlign=top;spacingLeft=4;spacingRight=4;overflow=hidden;rotatable=0;points=[[0,0.5],[1,0.5]];portConstraint=eastwest;whiteSpace=wrap;html=1;" parent="PVSmNiR2cH8IBzTru6Gr-40" vertex="1">
          <mxGeometry y="26" width="210" height="64" as="geometry" />
        </mxCell>
        <mxCell id="PVSmNiR2cH8IBzTru6Gr-42" value="" style="line;strokeWidth=1;fillColor=none;align=left;verticalAlign=middle;spacingTop=-1;spacingLeft=3;spacingRight=3;rotatable=0;labelPosition=right;points=[];portConstraint=eastwest;strokeColor=inherit;" parent="PVSmNiR2cH8IBzTru6Gr-40" vertex="1">
          <mxGeometry y="90" width="210" height="8" as="geometry" />
        </mxCell>
        <mxCell id="PVSmNiR2cH8IBzTru6Gr-43" value="+" style="text;strokeColor=none;fillColor=none;align=left;verticalAlign=top;spacingLeft=4;spacingRight=4;overflow=hidden;rotatable=0;points=[[0,0.5],[1,0.5]];portConstraint=eastwest;whiteSpace=wrap;html=1;" parent="PVSmNiR2cH8IBzTru6Gr-40" vertex="1">
          <mxGeometry y="98" width="210" height="60" as="geometry" />
        </mxCell>
        <mxCell id="PVSmNiR2cH8IBzTru6Gr-44" value="Extends" style="endArrow=block;endSize=16;endFill=0;html=1;rounded=0;entryX=0.676;entryY=1.086;entryDx=0;entryDy=0;entryPerimeter=0;exitX=0.25;exitY=0;exitDx=0;exitDy=0;" parent="1" source="PVSmNiR2cH8IBzTru6Gr-40" target="PVSmNiR2cH8IBzTru6Gr-29" edge="1">
          <mxGeometry width="160" relative="1" as="geometry">
            <mxPoint x="-700" y="500" as="sourcePoint" />
            <mxPoint x="-540" y="500" as="targetPoint" />
          </mxGeometry>
        </mxCell>
        <mxCell id="PVSmNiR2cH8IBzTru6Gr-45" value="Extends" style="endArrow=block;endSize=16;endFill=0;html=1;rounded=0;entryX=0.455;entryY=1.075;entryDx=0;entryDy=0;entryPerimeter=0;exitX=0.379;exitY=-0.012;exitDx=0;exitDy=0;exitPerimeter=0;" parent="1" source="PVSmNiR2cH8IBzTru6Gr-36" target="PVSmNiR2cH8IBzTru6Gr-29" edge="1">
          <mxGeometry width="160" relative="1" as="geometry">
            <mxPoint x="-1020" y="500" as="sourcePoint" />
            <mxPoint x="-920" y="394" as="targetPoint" />
          </mxGeometry>
        </mxCell>
        <mxCell id="PVSmNiR2cH8IBzTru6Gr-46" value="" style="endArrow=diamondThin;endFill=1;endSize=24;html=1;rounded=0;exitX=1.016;exitY=0.751;exitDx=0;exitDy=0;exitPerimeter=0;entryX=0.398;entryY=1.078;entryDx=0;entryDy=0;entryPerimeter=0;" parent="1" target="PVSmNiR2cH8IBzTru6Gr-20" edge="1">
          <mxGeometry width="160" relative="1" as="geometry">
            <mxPoint x="-740" y="438" as="sourcePoint" />
            <mxPoint x="-585" y="442" as="targetPoint" />
            <Array as="points">
              <mxPoint x="-131" y="438" />
            </Array>
          </mxGeometry>
        </mxCell>
        <mxCell id="PVSmNiR2cH8IBzTru6Gr-48" value="" style="endArrow=diamondThin;endFill=1;endSize=24;html=1;rounded=0;exitX=0.495;exitY=1.133;exitDx=0;exitDy=0;exitPerimeter=0;entryX=0.584;entryY=-0.023;entryDx=0;entryDy=0;entryPerimeter=0;" parent="1" source="PVSmNiR2cH8IBzTru6Gr-34" target="PVSmNiR2cH8IBzTru6Gr-26" edge="1">
          <mxGeometry width="160" relative="1" as="geometry">
            <mxPoint x="-860" y="153" as="sourcePoint" />
            <mxPoint x="-752" y="148" as="targetPoint" />
            <Array as="points" />
          </mxGeometry>
        </mxCell>
        <mxCell id="PVSmNiR2cH8IBzTru6Gr-49" value="Floor" style="swimlane;fontStyle=1;align=center;verticalAlign=top;childLayout=stackLayout;horizontal=1;startSize=26;horizontalStack=0;resizeParent=1;resizeParentMax=0;resizeLast=0;collapsible=1;marginBottom=0;whiteSpace=wrap;html=1;" parent="1" vertex="1">
          <mxGeometry x="-710" y="-240" width="260" height="158" as="geometry" />
        </mxCell>
        <mxCell id="PVSmNiR2cH8IBzTru6Gr-50" value="+ id: int&lt;div&gt;+ externalButton : ExternalButton&lt;/div&gt;" style="text;strokeColor=none;fillColor=none;align=left;verticalAlign=top;spacingLeft=4;spacingRight=4;overflow=hidden;rotatable=0;points=[[0,0.5],[1,0.5]];portConstraint=eastwest;whiteSpace=wrap;html=1;" parent="PVSmNiR2cH8IBzTru6Gr-49" vertex="1">
          <mxGeometry y="26" width="260" height="64" as="geometry" />
        </mxCell>
        <mxCell id="PVSmNiR2cH8IBzTru6Gr-51" value="" style="line;strokeWidth=1;fillColor=none;align=left;verticalAlign=middle;spacingTop=-1;spacingLeft=3;spacingRight=3;rotatable=0;labelPosition=right;points=[];portConstraint=eastwest;strokeColor=inherit;" parent="PVSmNiR2cH8IBzTru6Gr-49" vertex="1">
          <mxGeometry y="90" width="260" height="8" as="geometry" />
        </mxCell>
        <mxCell id="PVSmNiR2cH8IBzTru6Gr-52" value="+" style="text;strokeColor=none;fillColor=none;align=left;verticalAlign=top;spacingLeft=4;spacingRight=4;overflow=hidden;rotatable=0;points=[[0,0.5],[1,0.5]];portConstraint=eastwest;whiteSpace=wrap;html=1;" parent="PVSmNiR2cH8IBzTru6Gr-49" vertex="1">
          <mxGeometry y="98" width="260" height="60" as="geometry" />
        </mxCell>
        <mxCell id="PVSmNiR2cH8IBzTru6Gr-53" value="Building" style="swimlane;fontStyle=1;align=center;verticalAlign=top;childLayout=stackLayout;horizontal=1;startSize=26;horizontalStack=0;resizeParent=1;resizeParentMax=0;resizeLast=0;collapsible=1;marginBottom=0;whiteSpace=wrap;html=1;" parent="1" vertex="1">
          <mxGeometry x="-380" y="-310" width="260" height="158" as="geometry" />
        </mxCell>
        <mxCell id="PVSmNiR2cH8IBzTru6Gr-54" value="+ floorList : List&amp;lt;Floor&amp;gt;" style="text;strokeColor=none;fillColor=none;align=left;verticalAlign=top;spacingLeft=4;spacingRight=4;overflow=hidden;rotatable=0;points=[[0,0.5],[1,0.5]];portConstraint=eastwest;whiteSpace=wrap;html=1;" parent="PVSmNiR2cH8IBzTru6Gr-53" vertex="1">
          <mxGeometry y="26" width="260" height="64" as="geometry" />
        </mxCell>
        <mxCell id="PVSmNiR2cH8IBzTru6Gr-55" value="" style="line;strokeWidth=1;fillColor=none;align=left;verticalAlign=middle;spacingTop=-1;spacingLeft=3;spacingRight=3;rotatable=0;labelPosition=right;points=[];portConstraint=eastwest;strokeColor=inherit;" parent="PVSmNiR2cH8IBzTru6Gr-53" vertex="1">
          <mxGeometry y="90" width="260" height="8" as="geometry" />
        </mxCell>
        <mxCell id="PVSmNiR2cH8IBzTru6Gr-56" value="+" style="text;strokeColor=none;fillColor=none;align=left;verticalAlign=top;spacingLeft=4;spacingRight=4;overflow=hidden;rotatable=0;points=[[0,0.5],[1,0.5]];portConstraint=eastwest;whiteSpace=wrap;html=1;" parent="PVSmNiR2cH8IBzTru6Gr-53" vertex="1">
          <mxGeometry y="98" width="260" height="60" as="geometry" />
        </mxCell>
        <mxCell id="PVSmNiR2cH8IBzTru6Gr-57" value="" style="endArrow=diamondThin;endFill=1;endSize=24;html=1;rounded=0;exitX=-0.011;exitY=-0.123;exitDx=0;exitDy=0;exitPerimeter=0;entryX=0.673;entryY=-0.025;entryDx=0;entryDy=0;entryPerimeter=0;" parent="1" source="PVSmNiR2cH8IBzTru6Gr-52" target="PVSmNiR2cH8IBzTru6Gr-31" edge="1">
          <mxGeometry width="160" relative="1" as="geometry">
            <mxPoint x="-830" y="-110" as="sourcePoint" />
            <mxPoint x="-826" y="10" as="targetPoint" />
            <Array as="points">
              <mxPoint x="-830" y="-150" />
            </Array>
          </mxGeometry>
        </mxCell>
        <mxCell id="PVSmNiR2cH8IBzTru6Gr-58" value="" style="endArrow=diamondThin;endFill=1;endSize=24;html=1;rounded=0;exitX=-0.02;exitY=-0.072;exitDx=0;exitDy=0;exitPerimeter=0;entryX=0.652;entryY=-0.01;entryDx=0;entryDy=0;entryPerimeter=0;" parent="1" source="PVSmNiR2cH8IBzTru6Gr-54" target="PVSmNiR2cH8IBzTru6Gr-49" edge="1">
          <mxGeometry width="160" relative="1" as="geometry">
            <mxPoint x="-413" y="-309" as="sourcePoint" />
            <mxPoint x="-523" y="-154" as="targetPoint" />
            <Array as="points">
              <mxPoint x="-540" y="-290" />
            </Array>
          </mxGeometry>
        </mxCell>
        <mxCell id="3uMHHNt8hnUZlt7DlcRY-1" value="Player" style="swimlane;fontStyle=1;align=center;verticalAlign=top;childLayout=stackLayout;horizontal=1;startSize=26;horizontalStack=0;resizeParent=1;resizeParentMax=0;resizeLast=0;collapsible=1;marginBottom=0;whiteSpace=wrap;html=1;" vertex="1" parent="1">
          <mxGeometry x="-1420" y="-57" width="160" height="102" as="geometry" />
        </mxCell>
        <mxCell id="3uMHHNt8hnUZlt7DlcRY-2" value="+ id: String&lt;div&gt;+ currentPosition : int&lt;/div&gt;" style="text;strokeColor=none;fillColor=none;align=left;verticalAlign=top;spacingLeft=4;spacingRight=4;overflow=hidden;rotatable=0;points=[[0,0.5],[1,0.5]];portConstraint=eastwest;whiteSpace=wrap;html=1;" vertex="1" parent="3uMHHNt8hnUZlt7DlcRY-1">
          <mxGeometry y="26" width="160" height="42" as="geometry" />
        </mxCell>
        <mxCell id="3uMHHNt8hnUZlt7DlcRY-3" value="" style="line;strokeWidth=1;fillColor=none;align=left;verticalAlign=middle;spacingTop=-1;spacingLeft=3;spacingRight=3;rotatable=0;labelPosition=right;points=[];portConstraint=eastwest;strokeColor=inherit;" vertex="1" parent="3uMHHNt8hnUZlt7DlcRY-1">
          <mxGeometry y="68" width="160" height="8" as="geometry" />
        </mxCell>
        <mxCell id="3uMHHNt8hnUZlt7DlcRY-4" value="+ getter &amp;amp; setter" style="text;strokeColor=none;fillColor=none;align=left;verticalAlign=top;spacingLeft=4;spacingRight=4;overflow=hidden;rotatable=0;points=[[0,0.5],[1,0.5]];portConstraint=eastwest;whiteSpace=wrap;html=1;" vertex="1" parent="3uMHHNt8hnUZlt7DlcRY-1">
          <mxGeometry y="76" width="160" height="26" as="geometry" />
        </mxCell>
        <mxCell id="3uMHHNt8hnUZlt7DlcRY-5" value="Dice" style="swimlane;fontStyle=1;align=center;verticalAlign=top;childLayout=stackLayout;horizontal=1;startSize=26;horizontalStack=0;resizeParent=1;resizeParentMax=0;resizeLast=0;collapsible=1;marginBottom=0;whiteSpace=wrap;html=1;" vertex="1" parent="1">
          <mxGeometry x="-1650" y="-57" width="160" height="118" as="geometry" />
        </mxCell>
        <mxCell id="3uMHHNt8hnUZlt7DlcRY-6" value="+ diceCount : int&lt;div&gt;+ min : int&lt;/div&gt;&lt;div&gt;+ max: int&lt;/div&gt;" style="text;strokeColor=none;fillColor=none;align=left;verticalAlign=top;spacingLeft=4;spacingRight=4;overflow=hidden;rotatable=0;points=[[0,0.5],[1,0.5]];portConstraint=eastwest;whiteSpace=wrap;html=1;" vertex="1" parent="3uMHHNt8hnUZlt7DlcRY-5">
          <mxGeometry y="26" width="160" height="58" as="geometry" />
        </mxCell>
        <mxCell id="3uMHHNt8hnUZlt7DlcRY-7" value="" style="line;strokeWidth=1;fillColor=none;align=left;verticalAlign=middle;spacingTop=-1;spacingLeft=3;spacingRight=3;rotatable=0;labelPosition=right;points=[];portConstraint=eastwest;strokeColor=inherit;" vertex="1" parent="3uMHHNt8hnUZlt7DlcRY-5">
          <mxGeometry y="84" width="160" height="8" as="geometry" />
        </mxCell>
        <mxCell id="3uMHHNt8hnUZlt7DlcRY-8" value="+ rollDice() : int" style="text;strokeColor=none;fillColor=none;align=left;verticalAlign=top;spacingLeft=4;spacingRight=4;overflow=hidden;rotatable=0;points=[[0,0.5],[1,0.5]];portConstraint=eastwest;whiteSpace=wrap;html=1;" vertex="1" parent="3uMHHNt8hnUZlt7DlcRY-5">
          <mxGeometry y="92" width="160" height="26" as="geometry" />
        </mxCell>
        <mxCell id="3uMHHNt8hnUZlt7DlcRY-13" value="SnakeLadder (Jump)" style="swimlane;fontStyle=1;align=center;verticalAlign=top;childLayout=stackLayout;horizontal=1;startSize=26;horizontalStack=0;resizeParent=1;resizeParentMax=0;resizeLast=0;collapsible=1;marginBottom=0;whiteSpace=wrap;html=1;" vertex="1" parent="1">
          <mxGeometry x="-1940" y="-140" width="160" height="104" as="geometry" />
        </mxCell>
        <mxCell id="3uMHHNt8hnUZlt7DlcRY-14" value="+ start : int&lt;div&gt;+ end : int&lt;/div&gt;" style="text;strokeColor=none;fillColor=none;align=left;verticalAlign=top;spacingLeft=4;spacingRight=4;overflow=hidden;rotatable=0;points=[[0,0.5],[1,0.5]];portConstraint=eastwest;whiteSpace=wrap;html=1;" vertex="1" parent="3uMHHNt8hnUZlt7DlcRY-13">
          <mxGeometry y="26" width="160" height="44" as="geometry" />
        </mxCell>
        <mxCell id="3uMHHNt8hnUZlt7DlcRY-15" value="" style="line;strokeWidth=1;fillColor=none;align=left;verticalAlign=middle;spacingTop=-1;spacingLeft=3;spacingRight=3;rotatable=0;labelPosition=right;points=[];portConstraint=eastwest;strokeColor=inherit;" vertex="1" parent="3uMHHNt8hnUZlt7DlcRY-13">
          <mxGeometry y="70" width="160" height="8" as="geometry" />
        </mxCell>
        <mxCell id="3uMHHNt8hnUZlt7DlcRY-16" value="+ getter &amp;amp; setter" style="text;strokeColor=none;fillColor=none;align=left;verticalAlign=top;spacingLeft=4;spacingRight=4;overflow=hidden;rotatable=0;points=[[0,0.5],[1,0.5]];portConstraint=eastwest;whiteSpace=wrap;html=1;" vertex="1" parent="3uMHHNt8hnUZlt7DlcRY-13">
          <mxGeometry y="78" width="160" height="26" as="geometry" />
        </mxCell>
        <mxCell id="3uMHHNt8hnUZlt7DlcRY-17" value="Board" style="swimlane;fontStyle=1;align=center;verticalAlign=top;childLayout=stackLayout;horizontal=1;startSize=26;horizontalStack=0;resizeParent=1;resizeParentMax=0;resizeLast=0;collapsible=1;marginBottom=0;whiteSpace=wrap;html=1;" vertex="1" parent="1">
          <mxGeometry x="-2250" y="-340" width="470" height="140" as="geometry" />
        </mxCell>
        <mxCell id="3uMHHNt8hnUZlt7DlcRY-18" value="+ cells : Cells[ ] [ ]&lt;div&gt;&lt;br&gt;&lt;/div&gt;" style="text;strokeColor=none;fillColor=none;align=left;verticalAlign=top;spacingLeft=4;spacingRight=4;overflow=hidden;rotatable=0;points=[[0,0.5],[1,0.5]];portConstraint=eastwest;whiteSpace=wrap;html=1;" vertex="1" parent="3uMHHNt8hnUZlt7DlcRY-17">
          <mxGeometry y="26" width="470" height="44" as="geometry" />
        </mxCell>
        <mxCell id="3uMHHNt8hnUZlt7DlcRY-19" value="" style="line;strokeWidth=1;fillColor=none;align=left;verticalAlign=middle;spacingTop=-1;spacingLeft=3;spacingRight=3;rotatable=0;labelPosition=right;points=[];portConstraint=eastwest;strokeColor=inherit;" vertex="1" parent="3uMHHNt8hnUZlt7DlcRY-17">
          <mxGeometry y="70" width="470" height="8" as="geometry" />
        </mxCell>
        <mxCell id="3uMHHNt8hnUZlt7DlcRY-20" value="+ getter &amp;amp; setter&lt;div&gt;+initializeCells(int boardsize) : void&lt;/div&gt;&lt;div&gt;+ addSnakeLadder(cells[ ] [ ] cells, int numberOfSnakes, int numberOfLadders) : void&lt;/div&gt;" style="text;strokeColor=none;fillColor=none;align=left;verticalAlign=top;spacingLeft=4;spacingRight=4;overflow=hidden;rotatable=0;points=[[0,0.5],[1,0.5]];portConstraint=eastwest;whiteSpace=wrap;html=1;" vertex="1" parent="3uMHHNt8hnUZlt7DlcRY-17">
          <mxGeometry y="78" width="470" height="62" as="geometry" />
        </mxCell>
        <mxCell id="3uMHHNt8hnUZlt7DlcRY-21" value="Cells" style="swimlane;fontStyle=1;align=center;verticalAlign=top;childLayout=stackLayout;horizontal=1;startSize=26;horizontalStack=0;resizeParent=1;resizeParentMax=0;resizeLast=0;collapsible=1;marginBottom=0;whiteSpace=wrap;html=1;" vertex="1" parent="1">
          <mxGeometry x="-1720" y="-390" width="160" height="104" as="geometry" />
        </mxCell>
        <mxCell id="3uMHHNt8hnUZlt7DlcRY-22" value="+ obj : Jump" style="text;strokeColor=none;fillColor=none;align=left;verticalAlign=top;spacingLeft=4;spacingRight=4;overflow=hidden;rotatable=0;points=[[0,0.5],[1,0.5]];portConstraint=eastwest;whiteSpace=wrap;html=1;" vertex="1" parent="3uMHHNt8hnUZlt7DlcRY-21">
          <mxGeometry y="26" width="160" height="44" as="geometry" />
        </mxCell>
        <mxCell id="3uMHHNt8hnUZlt7DlcRY-23" value="" style="line;strokeWidth=1;fillColor=none;align=left;verticalAlign=middle;spacingTop=-1;spacingLeft=3;spacingRight=3;rotatable=0;labelPosition=right;points=[];portConstraint=eastwest;strokeColor=inherit;" vertex="1" parent="3uMHHNt8hnUZlt7DlcRY-21">
          <mxGeometry y="70" width="160" height="8" as="geometry" />
        </mxCell>
        <mxCell id="3uMHHNt8hnUZlt7DlcRY-24" value="+ getter &amp;amp; setter" style="text;strokeColor=none;fillColor=none;align=left;verticalAlign=top;spacingLeft=4;spacingRight=4;overflow=hidden;rotatable=0;points=[[0,0.5],[1,0.5]];portConstraint=eastwest;whiteSpace=wrap;html=1;" vertex="1" parent="3uMHHNt8hnUZlt7DlcRY-21">
          <mxGeometry y="78" width="160" height="26" as="geometry" />
        </mxCell>
        <mxCell id="3uMHHNt8hnUZlt7DlcRY-25" value="" style="endArrow=diamondThin;endFill=1;endSize=24;html=1;rounded=0;exitX=0.702;exitY=-0.024;exitDx=0;exitDy=0;exitPerimeter=0;entryX=0;entryY=0.25;entryDx=0;entryDy=0;" edge="1" parent="1" source="3uMHHNt8hnUZlt7DlcRY-17" target="3uMHHNt8hnUZlt7DlcRY-21">
          <mxGeometry width="160" relative="1" as="geometry">
            <mxPoint x="-1880" y="-360" as="sourcePoint" />
            <mxPoint x="-1720" y="-360" as="targetPoint" />
            <Array as="points">
              <mxPoint x="-1920" y="-370" />
              <mxPoint x="-1810" y="-370" />
              <mxPoint x="-1770" y="-370" />
            </Array>
          </mxGeometry>
        </mxCell>
        <mxCell id="3uMHHNt8hnUZlt7DlcRY-26" value="Game" style="swimlane;fontStyle=1;align=center;verticalAlign=top;childLayout=stackLayout;horizontal=1;startSize=26;horizontalStack=0;resizeParent=1;resizeParentMax=0;resizeLast=0;collapsible=1;marginBottom=0;whiteSpace=wrap;html=1;" vertex="1" parent="1">
          <mxGeometry x="-1510" y="-390" width="180" height="240" as="geometry" />
        </mxCell>
        <mxCell id="3uMHHNt8hnUZlt7DlcRY-27" value="+ board : Board&lt;div&gt;+ dice : Dice&lt;/div&gt;&lt;div&gt;+ playerList : Dequeue&amp;lt;Player&amp;gt;&lt;/div&gt;&lt;div&gt;+ winner&amp;nbsp; : Player&lt;/div&gt;" style="text;strokeColor=none;fillColor=none;align=left;verticalAlign=top;spacingLeft=4;spacingRight=4;overflow=hidden;rotatable=0;points=[[0,0.5],[1,0.5]];portConstraint=eastwest;whiteSpace=wrap;html=1;" vertex="1" parent="3uMHHNt8hnUZlt7DlcRY-26">
          <mxGeometry y="26" width="180" height="84" as="geometry" />
        </mxCell>
        <mxCell id="3uMHHNt8hnUZlt7DlcRY-28" value="" style="line;strokeWidth=1;fillColor=none;align=left;verticalAlign=middle;spacingTop=-1;spacingLeft=3;spacingRight=3;rotatable=0;labelPosition=right;points=[];portConstraint=eastwest;strokeColor=inherit;" vertex="1" parent="3uMHHNt8hnUZlt7DlcRY-26">
          <mxGeometry y="110" width="180" height="8" as="geometry" />
        </mxCell>
        <mxCell id="3uMHHNt8hnUZlt7DlcRY-29" value="+ getter &amp;amp; setter&lt;div&gt;+ initializeGame() : void&lt;/div&gt;&lt;div&gt;+ addPlayer() : void&lt;/div&gt;&lt;div&gt;+ startGame() : void&lt;/div&gt;&lt;div&gt;+ findPlayerTurn() : Player&lt;/div&gt;&lt;div&gt;+ jumpCheck() : int&lt;/div&gt;" style="text;strokeColor=none;fillColor=none;align=left;verticalAlign=top;spacingLeft=4;spacingRight=4;overflow=hidden;rotatable=0;points=[[0,0.5],[1,0.5]];portConstraint=eastwest;whiteSpace=wrap;html=1;" vertex="1" parent="3uMHHNt8hnUZlt7DlcRY-26">
          <mxGeometry y="118" width="180" height="122" as="geometry" />
        </mxCell>
        <mxCell id="3uMHHNt8hnUZlt7DlcRY-34" value="" style="endArrow=diamondThin;endFill=1;endSize=24;html=1;rounded=0;exitX=0.423;exitY=1.092;exitDx=0;exitDy=0;exitPerimeter=0;entryX=1.01;entryY=0.109;entryDx=0;entryDy=0;entryPerimeter=0;" edge="1" parent="1" source="3uMHHNt8hnUZlt7DlcRY-24" target="3uMHHNt8hnUZlt7DlcRY-13">
          <mxGeometry width="160" relative="1" as="geometry">
            <mxPoint x="-1770" y="-230" as="sourcePoint" />
            <mxPoint x="-1610" y="-230" as="targetPoint" />
            <Array as="points">
              <mxPoint x="-1652" y="-230" />
              <mxPoint x="-1650" y="-130" />
            </Array>
          </mxGeometry>
        </mxCell>
        <mxCell id="3uMHHNt8hnUZlt7DlcRY-35" value="" style="endArrow=diamondThin;endFill=1;endSize=24;html=1;rounded=0;exitX=0.25;exitY=0;exitDx=0;exitDy=0;entryX=0.433;entryY=-0.02;entryDx=0;entryDy=0;entryPerimeter=0;" edge="1" parent="1" source="3uMHHNt8hnUZlt7DlcRY-26" target="3uMHHNt8hnUZlt7DlcRY-17">
          <mxGeometry width="160" relative="1" as="geometry">
            <mxPoint x="-1642" y="-274" as="sourcePoint" />
            <mxPoint x="-1798" y="-131" as="targetPoint" />
            <Array as="points">
              <mxPoint x="-1465" y="-430" />
              <mxPoint x="-1640" y="-430" />
              <mxPoint x="-1720" y="-430" />
              <mxPoint x="-2050" y="-430" />
            </Array>
          </mxGeometry>
        </mxCell>
        <mxCell id="3uMHHNt8hnUZlt7DlcRY-37" value="" style="endArrow=diamondThin;endFill=1;endSize=24;html=1;rounded=0;entryX=0.937;entryY=0;entryDx=0;entryDy=0;entryPerimeter=0;exitX=0.071;exitY=1.136;exitDx=0;exitDy=0;exitPerimeter=0;" edge="1" parent="1" source="3uMHHNt8hnUZlt7DlcRY-29" target="3uMHHNt8hnUZlt7DlcRY-5">
          <mxGeometry width="160" relative="1" as="geometry">
            <mxPoint x="-1510" y="-245" as="sourcePoint" />
            <mxPoint x="-1440" y="-170" as="targetPoint" />
          </mxGeometry>
        </mxCell>
        <mxCell id="3uMHHNt8hnUZlt7DlcRY-38" value="" style="endArrow=diamondThin;endFill=1;endSize=24;html=1;rounded=0;entryX=0.354;entryY=-0.027;entryDx=0;entryDy=0;entryPerimeter=0;exitX=0.751;exitY=0.996;exitDx=0;exitDy=0;exitPerimeter=0;" edge="1" parent="1" source="3uMHHNt8hnUZlt7DlcRY-29" target="3uMHHNt8hnUZlt7DlcRY-1">
          <mxGeometry width="160" relative="1" as="geometry">
            <mxPoint x="-1380" y="-246" as="sourcePoint" />
            <mxPoint x="-1390" y="-141" as="targetPoint" />
          </mxGeometry>
        </mxCell>
      </root>
    </mxGraphModel>
  </diagram>
</mxfile>
